<svg xmlns="http://www.w3.org/2000/svg" width="960" height="280" viewBox="0 0 960 280" role="img" aria-labelledby="title description">
  <title id="title">H5Reclaim</title>
  <desc id="description">Recover surviving scientific HDF5 data. Royal blue and cream H5 mark on a navy background.</desc>
  <rect width="960" height="280" rx="20" fill="#101C36"/>
  <rect x="1" y="1" width="958" height="278" rx="19" fill="none" stroke="#263557" stroke-width="2"/>
  <g transform="translate(62 54)">
    <path d="M0 0h30v66h50V0h30v132H80V96H30v76H0z" fill="#3559F0"/>
    <path d="M110 0h86v30h-86zM110 66h30c39 0 64 22 64 53s-25 53-64 53h-59v-30h59c22 0 33-9 33-23s-11-23-33-23h-30z" fill="#F6F2E9"/>
  </g>
  <text x="302" y="131" font-family="Segoe UI, Arial, sans-serif" font-size="74" font-weight="700" letter-spacing="-2" fill="#3559F0">H5<tspan fill="#F6F2E9">Reclaim</tspan></text>
  <path d="M306 154h540" stroke="#354467" stroke-width="1"/>
  <text x="306" y="190" font-family="Segoe UI, Arial, sans-serif" font-size="23" fill="#D1D8E8">Recover surviving scientific HDF5 data</text>
  <text x="307" y="223" font-family="Segoe UI, Arial, sans-serif" font-size="13" letter-spacing="1.6" fill="#94A5C9">SOURCE PRESERVED · EVIDENCE REPORTED</text>
</svg>
